<svg xmlns="http://www.w3.org/2000/svg" viewBox="0 0 94.13 119.55"><g id="Laag_2" data-name="Laag 2"><g id="Laag_1-2" data-name="Laag 1"><path d="M47.28,94.25a47.13,47.13,0,1,1,46.85-47C94.06,72.7,73.4,94.25,47.28,94.25ZM47.08,92A45,45,0,0,0,92,47.23C92.12,22.36,71.94,2.36,46.69,2.3,22.32,2.23,2.27,22.43,2.26,47.05A44.78,44.78,0,0,0,47.08,92Z"/><path d="M13.31,105.94a2.2,2.2,0,0,0-2.56,1c-.43.64-1,1.17-1.7.54s-.22-1.36.32-1.89c1.7-1.67,6.44-2.55,8.59-1.63,1.82.77,2.28,2.37.88,3.76a12.11,12.11,0,0,1-3.23,2.09c-1,.52-1.26,1-.44,1.87.61.64,1.2,1.29,1.88,2a13.85,13.85,0,0,1,1-2,11,11,0,0,1,2.06-2.42c1.53-1.2,2.48-.94,4.35,1,.85-1.43,1.65-2.82,2.52-4.17a24.31,24.31,0,0,1,1.85-2.43c.19-.22.62-.21.94-.31,0,.32.09.71-.05,1-.68,1.27-1.42,2.5-2.24,3.91,2,.11,2.26,1.47,2.57,3,.16-.34.31-.67.49-1a4.05,4.05,0,0,1,.77-1.26c.3-.25.82-.2,1.25-.28,0,.41.19.9,0,1.23-.53,1.17-1.16,2.29-1.85,3.59,1.56-.24,2.05-1.29,2.55-2.32,1-2.14,2.28-2.86,4.56-2.63,1.21.13,1.46.56.87,1.65s-1.18,2-1.78,3l.25.38,2.08-.88A2.08,2.08,0,0,1,37.08,115c-1.26.06-1.49-.35-1.57-3-.58.51-1,.91-1.5,1.34-.27.26-.44.72-.74.82a7.88,7.88,0,0,1-3.24.69c-.43-.07-.62-1.65-1-2.66-.37.35-.9.87-1.46,1.35a4.88,4.88,0,0,1-1.33,1,3.13,3.13,0,0,1-2,.27c-.41-.17-.52-1.12-.67-1.74a6,6,0,0,1,.05-1.48l-1.14,1.3a6.91,6.91,0,0,1-5.45,2.4,3,3,0,0,1-1.87-1c-1-1-1.88-2.18-2.92-3.4-.61.95-1.13,1.81-1.71,2.63-.4.56-.67,1.54-1.66.88s-.16-1.25.17-1.77c1.13-1.77,2.33-3.49,3.48-5.24C12.81,107,13,106.5,13.31,105.94Zm.71,2.68a5.9,5.9,0,0,0,4.14-2.84c-1-.36-1.64-1.53-2.51-.3A27.36,27.36,0,0,0,14,108.62Zm10.77,4.52.58.5c.74-.75,1.52-1.47,2.2-2.28.2-.23.1-.72.14-1.08-.42,0-1-.06-1.22.17A27.71,27.71,0,0,0,24.79,113.14ZM22,110.07c-1.89.58-2.61,1.48-2.69,3.23A3.32,3.32,0,0,0,22,110.07Z"/><path d="M87.9,113.52l2.15-.86A2.5,2.5,0,0,1,87.28,115c-1.08-.14-1.2-.48-1-3.43-.66.72-1.13,1.26-1.62,1.78a6.49,6.49,0,0,1-5,1.8,1.17,1.17,0,0,1-.87-.35c-.89-1.25-1.79-.86-2.9-.29a5.22,5.22,0,0,1-2.53.47c-.36,0-.68-.75-1-1.16a7,7,0,0,1,1.24-.37,12.91,12.91,0,0,1,1.51,0c-1-1.16-1.79-2.2-2.65-3.2-.61-.73-2.48-.42-3.45.69.57.24,1.07.49,1.59.67,1.12.37,1.52,1.11.75,2A4.68,4.68,0,0,1,68.8,115a29.45,29.45,0,0,1-4.31.06c-1,0-1.35-.52-1.25-1.41.07-.64.24-1.28.36-1.92-1.64-.88-2.84-.43-3.88,1.12-.57.86-1.33,2-2.61.62-.13-.15-.75,0-1.07.19-.49.26-.87.8-1.37,1s-1.6.38-2,0a2.33,2.33,0,0,1-.73-2,5.8,5.8,0,0,1,3.64-4,3.35,3.35,0,0,1,2.26.56c.18.1-.11,1.1-.24,1.68a14.31,14.31,0,0,1-.46,1.4l.39.3c.32-.39.79-.73.94-1.18.93-2.79,3-3.12,5.23-2.79,3.26.48,3.25.54,1.67,3.48a4.26,4.26,0,0,0-.35.75,2.07,2.07,0,0,0,0,.56c1.66-.59,1.82-.93,2.24-2.43a4.6,4.6,0,0,1,1.46-2,4.5,4.5,0,0,1,1.79-.69c1.77-.49,2-.39,2.73,1.29,1.15-.46,2.29-1,3.45-1.37a1.71,1.71,0,0,1,1.21-.07,1.84,1.84,0,0,1,.75,1.12c0,.17-.55.62-.89.67-1,.16-2.29-.28-3,1.2l.61.19c1,.27,3-.66,3.82-1.28a11.66,11.66,0,0,1,3.19-1.49c.24-.09.68.39,1,.61a5.08,5.08,0,0,1-1,1c-.32.18-.79.07-1.35.1.77,1.13.41,1.77-.64,2.24-.27.12-.36.63-.54,1,.38,0,.83.2,1.13.07a5.72,5.72,0,0,0,3.21-2.94,3.83,3.83,0,0,1,4.89-2,1.19,1.19,0,0,1,.35,1.09,13.09,13.09,0,0,1-1,1.83c-.3.55-.57,1.11-.86,1.67Zm-31.34-2.87-.38-.35A2.49,2.49,0,0,0,54,113.7Z"/><path d="M52.48,105.24a11.33,11.33,0,0,0-7.15,4c-.27.33-.25.9-.36,1.36.46.1.92.21,1.38.28a7.68,7.68,0,0,0,1,0c-.86,1.64-2,2-3.39,1.09-1.21-.76-1.32-1.82-.24-3.21A13.85,13.85,0,0,1,54,103.48c.41,0,1.15.12,1.21.35a1.78,1.78,0,0,1-.3,1.36c-1.09,1.62-2.27,3.18-3.4,4.78-.24.33-.65.8-.56,1.06.51,1.59-.67,2-1.58,2.77A35.15,35.15,0,0,0,46.55,117a18.42,18.42,0,0,1-2.22,2.11,1.57,1.57,0,0,1-2.36-.25,1.64,1.64,0,0,1,.08-2.39,6.1,6.1,0,0,1,1.65-1.25c4-2,6.27-5.58,8.62-9.11A3.47,3.47,0,0,0,52.48,105.24Z"/><path d="M47.29,69H23.8c-.47,0-.94,0-1.4,0-3.48-.15-4.77-1.3-4.79-4.78q-.09-17.07,0-34.13c0-3.53,1.49-4.83,5.07-4.83q24.62,0,49.23,0c3.89,0,5.27,1.23,5.31,5.18.1,10.3.06,20.61,0,30.91A32.74,32.74,0,0,1,77,65.62a3.41,3.41,0,0,1-3.31,3.22,19.09,19.09,0,0,1-2.51.12Zm.92-24.09h0c-5.12,0-10.24,0-15.36,0-.38,0-.76.43-1.14.66.38.23.76.47,1.14.68a.65.65,0,0,0,.28,0c10,0,20.09.1,30.14.1.41,0,.83-.49,1.25-.75-.41-.25-.82-.69-1.23-.7C58.27,44.87,53.24,44.88,48.21,44.88Zm-.15,4.5v-.07c-2.88,0-5.77,0-8.65,0-.41,0-.8.42-1.2.65.39.22.77.64,1.17.64q8.71.06,17.45,0c.39,0,.77-.4,1.15-.61-.37-.22-.74-.61-1.12-.62C53.93,49.36,51,49.38,48.06,49.38ZM38.13,33a2.42,2.42,0,0,0-2.6-2.62,2.62,2.62,0,1,0,0,5.23A2.4,2.4,0,0,0,38.13,33ZM26.92,35.56a2.61,2.61,0,1,0-.15-5.22,2.61,2.61,0,1,0,.15,5.22Zm17.36,0a2.64,2.64,0,0,0,2.66-2.64,2.55,2.55,0,0,0-2.56-2.57A2.39,2.39,0,0,0,41.67,33,2.42,2.42,0,0,0,44.28,35.56Z"/></g></g></svg>